<svg viewBox="0 0 32 32" fill="none" xmlns="http://www.w3.org/2000/svg" id="Frog-Flat--Streamline-Fluent-Emoji" height="32" width="32">
  <desc>
    Frog Flat Streamline Emoji: https://streamlinehq.com
  </desc>
  <path d="M28 8.44127c0.01 0.86 -0.18 1.67003 -0.52 2.40003 -0.15 0.33 -0.1 0.71 0.13 0.99 1.49 1.82 2.39 4.14 2.39 6.67 0 0.7018 -0.0688 1.3874 -0.2001 2.0506 0.0104 -0.0535 -0.416 0.0536 -0.4063 0L27.57 21.8068l-11.7484 3.992 -11.42159 -3.992 -1.98204 -1.2326c0.00732 0.0403 -0.23322 -0.1022 -0.2257 -0.062C2.06609 19.8614 2 19.1891 2 18.5013c0 -2.53 0.9 -4.85 2.39 -6.67 0.23 -0.28 0.28 -0.67 0.13 -1 -0.34 -0.72 -0.53 -1.54003 -0.52 -2.40003 0.04 -2.95 2.43 -5.36 5.38 -5.43 2.83 -0.06 5.19 2.02 5.56 4.73 0.02 0.15 0.15 0.27 0.31 0.27h1.49c0.16 0 0.29 -0.12 0.31 -0.27 0.38 -2.72 2.74 -4.79 5.57 -4.73 2.95 0.07 5.34 2.48 5.38 5.44Z" fill="#00d26a" stroke-width="1"></path>
  <path d="M13 8.5c0 1.933 -1.567 3.5 -3.5 3.5S6 10.433 6 8.5 7.567 5 9.5 5 13 6.567 13 8.5Z" fill="#fff478" stroke-width="1"></path>
  <path d="M26 8.5c0 1.933 -1.567 3.5 -3.5 3.5S19 10.433 19 8.5 20.567 5 22.5 5 26 6.567 26 8.5Z" fill="#fff478" stroke-width="1"></path>
  <path d="M12 8.5c0 1.38071 -1.1193 2.5 -2.5 2.5C8.11929 11 7 9.88071 7 8.5S8.11929 6 9.5 6C10.8807 6 12 7.11929 12 8.5Z" fill="#1c1c1c" stroke-width="1"></path>
  <path d="M25 8.50122c0 1.38071 -1.1193 2.49998 -2.5 2.49998S20 9.88193 20 8.50122c0 -1.38071 1.1193 -2.5 2.5 -2.5s2.5 1.11929 2.5 2.5Z" fill="#1c1c1c" stroke-width="1"></path>
  <path d="M17.5 14.0012c0.2761 0 0.5 -0.2238 0.5 -0.5 0 -0.2761 -0.2239 -0.5 -0.5 -0.5s-0.5 0.2239 -0.5 0.5c0 0.2762 0.2239 0.5 0.5 0.5Z" fill="#1c1c1c" stroke-width="1"></path>
  <path d="M15 13.5012c0 0.2762 -0.2239 0.5 -0.5 0.5s-0.5 -0.2238 -0.5 -0.5c0 -0.2761 0.2239 -0.5 0.5 -0.5s0.5 0.2239 0.5 0.5Z" fill="#1c1c1c" stroke-width="1"></path>
  <path d="M27.57 20.3913c-1.18 0 -2.27 -0.4 -3.15 -1.06 -2.31 -1.85 -5.24 -2.95 -8.43 -2.95 -3.22 0 -6.16999 1.12 -8.48999 3v-0.01c-0.86 0.64 -1.94 1.02 -3.1 1.02h-2.23c0.89 4.9 5.18 8.61 10.32999 8.61h7c5.15 0 9.44 -3.71 10.33 -8.61h-2.26Z" fill="#fcd53f" stroke-width="1"></path>
</svg>